<svg xmlns="http://www.w3.org/2000/svg" width="42" height="26" viewBox="0 0 42 26">
  <g id="americanexpress-light" transform="translate(0.285 -0.304)">
    <rect id="card_bg" width="42" height="26" rx="2" transform="translate(-0.285 0.304)" fill="#dfe3e8"/>
    <g id="amex" transform="translate(0 6.579)">
      <path id="Path" d="M1.093.758l.465,1.136H0L.473.758.783,0l.31.758Z" transform="translate(2.05 2.118)" fill="#296db6"/>
      <path id="Shape" d="M38.981,7.061h0l-2.908,0L35.209,5.7V7.06H30.991L30.57,6.009h-.964l-.4,1.051H26.654a3.428,3.428,0,0,1-2-.639V7.06h-4.14l-1-1.258V7.06H3.729l-.4-1.051H2.369l-.4,1.051H0V6.008H1.309l.414-1.016H3.987l.414.982H5.725L3.643,1.119H2.11L0,6,0,3.271,1.379,0H4.185l.809,1.808V0H8.437l.518,1.55L9.47.034H24.655V.741A3.364,3.364,0,0,1,26.714.033h4.691l.86,1.808V.034h2.7l.92,1.429V.034h3.091V7.061ZM33.195,1.119v4.89h1.154V2.738l.31.533,1.8,2.7h1.378l.042-4.89h-1.2V4.252l-.327-.55L34.623,1.119Zm-3.847,0-2.084,4.89h1.258l.412-1.016h2.3l.412.982h1.326L30.9,1.119Zm-2.814-.005a2.2,2.2,0,0,0-2.187,2.4v.068a2.153,2.153,0,0,0,2.14,2.4q.058,0,.116,0h.068l.474-1.034h-.37l-.063,0a1.206,1.206,0,0,1-1.194-1.362V3.513a1.2,1.2,0,0,1,.316-.964,1.215,1.215,0,0,1,.882-.381h1.342V1.119h-1.37Q26.61,1.113,26.533,1.113Zm-4.055.005V5.975h1.179V1.119ZM18.76,4.252h.533l1.446,1.723h1.5L20.619,4.184a1.5,1.5,0,0,0,1.325-1.532,1.524,1.524,0,0,0-1.722-1.532H17.562V5.975h1.2V4.252ZM10.835,2.06h0V5.975h1.137V1.119h-1.9L9.109,3.925l-.155.535L8.8,3.925,7.853,1.119H5.95V5.975H7.078V2.048l.24.741,1.1,3.186H9.47l1.145-3.186Zm2.078-.941V5.939h3.874V4.907H14.058V4.046h2.661V3.012H14.058v-.86h2.729V1.119ZM30.9,4.012H29.376l.444-1.136.31-.758.293.722.451,1.1h0l-.489-1.061L30.9,4.009ZM20.2,3.226a.522.522,0,0,1-.078-.006H18.76V2.152h1.359a.551.551,0,0,1,.061,0,.543.543,0,0,1,.542.534V2.7a.527.527,0,0,1-.525.526Z" transform="translate(0 0)" fill="#296db6"/>
      <path id="Shape-2" data-name="Shape" d="M17.647,7.026h0l-2.952,0V5.251a4.231,4.231,0,0,1-1.247.189h-.526V7.024H8.573L7.851,5.975,7.111,7.024H0V0H7.128l.724,1.034L8.59,0H33.675V1.085H31.154a1.513,1.513,0,0,0-.172-.01,1.5,1.5,0,0,0-1.5,1.542A1.352,1.352,0,0,0,31,4.046h1.109a.45.45,0,0,1,.086-.008.439.439,0,1,1,0,.878.45.45,0,0,1-.086-.008H29.622V5.939h2.47c.047,0,.095.007.142.007a1.53,1.53,0,0,0,1.425-.987V6.595a2.874,2.874,0,0,1-1.511.43h-13.5l-1-1.257V7.026ZM7.851,4.39v0L9.021,5.939l1.481.036L8.539,3.53l1.929-2.445H9.038L7.851,2.617,6.672,1.1H5.208L7.162,3.53,5.268,5.939H6.637L7.85,4.392Zm17.285.518V5.939h2.513q.062.005.124.005a1.506,1.506,0,0,0,1.5-1.555A1.334,1.334,0,0,0,27.763,3H26.634A.44.44,0,0,1,26.547,3a.439.439,0,1,1,.087-.869h2.092L29.191,1.1H26.669A1.5,1.5,0,0,0,25,2.617a1.352,1.352,0,0,0,1.515,1.429h1.136a.45.45,0,0,1,.086-.008.439.439,0,1,1,0,.878.449.449,0,0,1-.086-.008Zm-8.29-.69h.535l1.446,1.722h1.5L18.7,4.15a1.543,1.543,0,1,0-.363-3.065H15.7V5.939h1.145V4.218ZM10.709,1.085V5.939h1.154v-1.6h1.489A1.593,1.593,0,0,0,15.108,2.7a1.558,1.558,0,0,0-1.722-1.618Zm9.891,0v4.8h3.917V4.855H21.788v-.86h2.661V2.978H21.788v-.86h2.7l.025-1.034Zm-19.48,0v4.8h3.9V4.855H2.29v-.86H4.968V2.978H2.29v-.86H5.019V1.085ZM33.63,3.78a1.4,1.4,0,0,0-1.41-.8H31.094a.439.439,0,1,1,0-.86h2.117l.423-1v2.66ZM13.282,3.305H11.888V2.118h1.395a.593.593,0,1,1,0,1.187Zm5.026-.114a.54.54,0,0,1-.076-.005h-1.36V2.118h1.36a.534.534,0,0,1,.423.129.542.542,0,0,1,.18.4v.014a.528.528,0,0,1-.527.525Z" transform="translate(7.645 9.211)" fill="#296db6"/>
    </g>
  </g>
</svg>
