<svg id="discover-light" xmlns="http://www.w3.org/2000/svg" width="41.32" height="27.547" viewBox="0 0 41.32 27.547">
  <path id="card_bg" d="M41.32,3.443V24.1a3.443,3.443,0,0,1-3.443,3.443H3.443a3.288,3.288,0,0,1-1.171-.207A3.443,3.443,0,0,1,0,24.1V3.443A3.443,3.443,0,0,1,3.443,0H37.877A3.443,3.443,0,0,1,41.32,3.443Z" fill="#dfe3e8"/>
  <g id="discover" transform="translate(2.273 8.918)">
    <path id="Path" d="M39.048,0V10.21A3.443,3.443,0,0,1,35.6,13.653H1.171A3.288,3.288,0,0,1,0,13.446c2.858-.413,5.682-.93,8.419-1.515.723-.138,1.429-.31,2.135-.465,11.38-2.6,21.228-6.422,26.772-10.175C37.946.861,38.531.43,39.048,0Z" transform="translate(0 4.976)" fill="#ee7623"/>
    <path id="Shape" d="M1.739,5.521q-.086,0-.172-.005H0V.007H1.567C1.633,0,1.7,0,1.768,0A2.772,2.772,0,0,1,3.547,4.9,2.941,2.941,0,0,1,1.739,5.521ZM1.085.937h0V4.62H1.36c.06.005.12.008.18.008a1.97,1.97,0,0,0,1.3-.49,1.84,1.84,0,0,0,.586-1.378A1.818,1.818,0,0,0,2.84,1.385,2.008,2.008,0,0,0,1.36.937Z" transform="translate(1.171 0.234)" fill="#231f20"/>
    <rect id="Rectangle" width="1.085" height="5.527" transform="translate(6.215 0.241)" fill="#231f20"/>
    <path id="Path-2" data-name="Path" d="M2.221,2.224c-.637-.241-.826-.4-.826-.706a.716.716,0,0,1,.792-.6,1.085,1.085,0,0,1,.878.448l.568-.74A2.393,2.393,0,0,0,1.911,0,1.722,1.722,0,0,0,.189,1.587c0,.758.344,1.154,1.36,1.515.43.155.637.258.758.31A.706.706,0,0,1,2.617,4a.775.775,0,0,1-.74.723A1.291,1.291,0,0,1,.689,3.98L0,4.72A2.152,2.152,0,0,0,1.911,5.753,1.722,1.722,0,0,0,3.8,3.945C3.8,3,3.461,2.671,2.221,2.224Z" transform="translate(7.696 0.135)" fill="#231f20"/>
    <path id="Path-3" data-name="Path" d="M0,2.892A2.858,2.858,0,0,0,2.91,5.785a3.013,3.013,0,0,0,1.343-.327V4.184a1.722,1.722,0,0,1-1.291.568A1.722,1.722,0,0,1,1.1,2.858,1.825,1.825,0,0,1,2.91,1a1.722,1.722,0,0,1,1.343.62V.344A2.72,2.72,0,0,0,2.927,0,2.91,2.91,0,0,0,0,2.892Z" transform="translate(11.862 0.103)" fill="#231f20"/>
    <path id="Path-4" data-name="Path" d="M2.651,3.7,1.171,0H0L2.341,5.664h.585L5.3,0H4.149l-1.5,3.7Z" transform="translate(22.02 0.241)" fill="#231f20"/>
    <path id="Path-5" data-name="Path" d="M0,5.527H3.047V4.58H1.067V3.1H2.978V2.152H1.067V.93h1.98V0H0V5.527Z" transform="translate(27.822 0.241)" fill="#231f20"/>
    <path id="Shape-2" data-name="Shape" d="M1.085,5.512h0L0,5.51V0H1.584C2.831,0,3.547.59,3.547,1.618A1.493,1.493,0,0,1,2.29,3.2l1.719,2.3L2.7,5.51l-1.5-2.222H1.085V5.512Zm0-4.7V2.53h.31c.657,0,1.034-.326,1.034-.894,0-.541-.351-.827-1.016-.827Z" transform="translate(31.593 0.241)" fill="#231f20"/>
    <path id="Path-6" data-name="Path" d="M5.888,2.927A2.944,2.944,0,1,1,2.944,0,2.944,2.944,0,0,1,5.888,2.927Z" transform="translate(16.459 0.069)" fill="#ee7623"/>
    <path id="Shape-3" data-name="Shape" d="M.121.5h0L0,.5V0H.172C.361,0,.361.049.361.155a.12.12,0,0,1-.1.121L.412.5.276.5.121.293V.5Z" transform="translate(35.346 0.189)" fill="#231f20"/>
    <path id="Shape-4" data-name="Shape" d="M.414.843A.413.413,0,0,1,0,.431.43.43,0,0,1,.414,0,.429.429,0,0,1,.826.431.413.413,0,0,1,.414.843Zm0-.74A.327.327,0,0,0,.087.431.344.344,0,0,0,.414.792h.01a.272.272,0,0,0,.213-.1H.586A.4.4,0,0,0,.741.431.329.329,0,0,0,.413.1Z" transform="translate(35.191 0)" fill="#231f20"/>
  </g>
</svg>
