<svg xmlns="http://www.w3.org/2000/svg" width="42" height="26" viewBox="0 0 42 26">
  <g id="paypal-light" transform="translate(0.327 -0.304)">
    <rect id="card_bg" width="42" height="26" rx="2" transform="translate(-0.327 0.304)" fill="#dfe3e8"/>
    <g id="paypal" transform="translate(13.786 4.653)">
      <path id="Path" d="M3.547,16.052l.293-1.894H0l2.221-14a.155.155,0,0,1,0-.121H7.7a4.7,4.7,0,0,1,3.684,1.1,2.324,2.324,0,0,1,.585,1.085,3.719,3.719,0,0,1,0,1.515v.43l.31.172A1.98,1.98,0,0,1,13.36,5.911a4.3,4.3,0,0,1,0,1.6,5.578,5.578,0,0,1-.654,1.825,3.857,3.857,0,0,1-1.033,1.136,4.425,4.425,0,0,1-1.412.637A7.73,7.73,0,0,1,8.54,11.3H8.126a1.274,1.274,0,0,0-.809.31,1.291,1.291,0,0,0-.43.758v.172L6.37,15.88V16H3.547Z" transform="translate(0.591 0.612)" fill="#253d80"/>
      <path id="Path-2" data-name="Path" d="M9.561,0V.31A5.613,5.613,0,0,1,3.346,5.182H1.779a.74.74,0,0,0-.74.654L.23,11,.006,12.448a.4.4,0,0,0,.4.465H3.174a.671.671,0,0,0,.671-.568v-.138l.534-3.323V8.694a.671.671,0,0,1,.654-.568h.4a4.907,4.907,0,0,0,5.44-4.253A3.633,3.633,0,0,0,10.3.654,2.875,2.875,0,0,0,9.561,0Z" transform="translate(3.58 4.406)" fill="#189bd7"/>
      <path id="Path-3" data-name="Path" d="M7.868.115H7.179A8.471,8.471,0,0,0,5.8.012H1.55a.912.912,0,0,0-.293,0A.654.654,0,0,0,.9.511L0,6.158V6.33a.74.74,0,0,1,.74-.654H2.307A5.613,5.613,0,0,0,8.522.8V.494L7.937.253Z" transform="translate(4.585 3.998)" fill="#242e65"/>
      <path id="Path-4" data-name="Path" d="M5.566,4.423a.654.654,0,0,1,.362-.5.912.912,0,0,1,.293,0h4.2a8.471,8.471,0,0,1,1.377.1h.844l.585.241a3.443,3.443,0,0,0-.775-2.944A5.354,5.354,0,0,0,8.338.033H2.984a.758.758,0,0,0-.758.654L.005,14.8a.465.465,0,0,0,.448.534H3.844l.826-5.268Z" transform="translate(0 0)" fill="#253d80"/>
    </g>
  </g>
</svg>
