<svg xmlns="http://www.w3.org/2000/svg" width="41" height="26" viewBox="0 0 41 26">
  <g id="visa-light" transform="translate(-0.251 -0.304)">
    <rect id="card_bg" width="41" height="26" rx="2" transform="translate(0.251 0.304)" fill="#dfe3e8"/>
    <path id="visa-logo" d="M14.652,8.229a6.819,6.819,0,0,1-2.29-.414l.378-1.722a4.278,4.278,0,0,0,1.941.469q.1,0,.195,0c.571,0,1.223-.413,1.223-.775S15.79,5.242,15.03,4.8l-.023-.014c-.753-.435-1.785-1.031-1.785-2.156C13.222,1.083,14.638,0,16.667,0a5.567,5.567,0,0,1,1.911.344l-.361,1.722a4.007,4.007,0,0,0-1.66-.361c-.124,0-.25.006-.373.017-.594.071-.86.388-.86.671-.007.372.463.62,1.007.907.832.439,1.867.985,1.867,2.244l.036-.034C18.233,7.162,16.826,8.229,14.652,8.229Zm5.525-.067H18.008l3.1-7.387a.945.945,0,0,1,.875-.586h1.725l1.721,7.97-1.893,0-.293-1.188H20.608l-.431,1.188Zm2.136-5.821-1.085,3,1.842-.017ZM10.9,8.144H8.849L10.571.172h2.048L10.9,8.143Zm-4.562,0h-2.2L2.411,1.791a.914.914,0,0,0-.483-.707A9.042,9.042,0,0,0,0,.414V.172H3.443A.958.958,0,0,1,4.39,1l.879,4.6L7.576.172h2.1L6.336,8.143Z" transform="translate(8.486 9.145)" fill="#2a2a6c"/>
  </g>
</svg>
